# xmcd
#
# Track frame offsets: 
#        151
#        17652
#        34163
#        51684
#        68511
#        87746
#        106093
#        130422
#        145747
#        163834
#
# Disc length: 2408 seconds
#
# Revision: 0
# Processed by: cddbd v1.5.2PL0 Copyright (c) Steve Scherf et al.
# Submitted via: ExactAudioCopy v0.99pb4
#
DISCID=8c09660a
DTITLE=E-Flat Porch Band - Pork Chop Night
DYEAR=2001
DGENRE=Bluegrass
TTITLE0=Somethin'
TTITLE1=Hoe Cake
TTITLE2=Madison Blues
TTITLE3=Pork Chop Night
TTITLE4=Rivers of Texas
TTITLE5=Stranger Blues
TTITLE6=Long Gone
TTITLE7=Queen Bee
TTITLE8=Nobody's Fault But Mine
TTITLE9=All the Time
EXTD=
EXTT0=
EXTT1=
EXTT2=
EXTT3=
EXTT4=
EXTT5=
EXTT6=
EXTT7=
EXTT8=
EXTT9=
PLAYORDER=
